<?xml version="1.0" encoding="UTF-8"?>
<svg xmlns="http://www.w3.org/2000/svg" width="17" height="19" viewBox="0 0 17 19" fill="none">
  <path d="M2.44654 7.74641C2.47868 7.34672 2.66048 6.97377 2.95574 6.70185C3.25099 6.42992 3.63804 6.27897 4.03979 6.27905H13.6744C14.0761 6.27897 14.4632 6.42992 14.7584 6.70185C15.0537 6.97377 15.2355 7.34672 15.2676 7.74641L15.9093 15.7212C15.9269 15.9406 15.8988 16.1613 15.8268 16.3694C15.7548 16.5775 15.6404 16.7685 15.4908 16.9303C15.3412 17.0921 15.1597 17.2213 14.9576 17.3096C14.7556 17.398 14.5374 17.4436 14.3168 17.4437H3.39738C3.17678 17.4436 2.95859 17.398 2.75654 17.3096C2.55449 17.2213 2.37296 17.0921 2.22337 16.9303C2.07378 16.7685 1.95938 16.5775 1.88736 16.3694C1.81535 16.1613 1.78728 15.9406 1.80493 15.7212L2.44654 7.74641V7.74641Z" stroke="#4F4F4F" stroke-width="2" stroke-linecap="round" stroke-linejoin="round"/>
  <path d="M12.0531 8.67153V4.68416C12.0531 3.83815 11.7163 3.02678 11.1169 2.42856C10.5176 1.83034 9.70463 1.49426 8.85697 1.49426C8.00932 1.49426 7.19638 1.83034 6.597 2.42856C5.99762 3.02678 5.66089 3.83815 5.66089 4.68416V8.67153" stroke="#4F4F4F" stroke-width="2" stroke-linecap="round" stroke-linejoin="round"/>
</svg>