<?xml version="1.0" encoding="UTF-8"?>
<svg xmlns="http://www.w3.org/2000/svg" width="22" height="17" viewBox="0 0 22 17" fill="none">
  <path d="M14.2012 10.0953L10.4503 6.35174C10.3461 6.24775 10.2725 6.1351 10.2294 6.01378C10.1863 5.89246 10.1645 5.76247 10.1638 5.62382C10.1638 5.48517 10.1856 5.35518 10.2294 5.23386C10.2732 5.11254 10.3468 4.99989 10.4503 4.8959L14.2012 1.1523C14.4095 0.944321 14.6527 0.840332 14.9305 0.840332C15.2083 0.840332 15.4515 0.944321 15.6598 1.1523C15.8682 1.36028 15.9724 1.60742 15.9724 1.89374C15.9724 2.18005 15.8682 2.42685 15.6598 2.63414L13.7063 4.58393H20.1401C20.4353 4.58393 20.6829 4.68376 20.8829 4.88342C21.083 5.08308 21.1827 5.32988 21.182 5.62382C21.182 5.91845 21.0819 6.1656 20.8819 6.36526C20.6819 6.56492 20.4346 6.6644 20.1401 6.66371H13.7063L15.6598 8.6135C15.8682 8.82148 15.9724 9.06412 15.9724 9.34142C15.9724 9.61872 15.8682 9.86136 15.6598 10.0693C15.4515 10.2773 15.2129 10.39 14.944 10.4073C14.6752 10.4246 14.4276 10.3206 14.2012 10.0953ZM5.86588 16.3087C6.07426 16.5166 6.31738 16.6251 6.59522 16.6342C6.87306 16.6432 7.11617 16.5433 7.32456 16.3347L11.0754 12.5911C11.1796 12.4871 11.2533 12.3744 11.2963 12.2531C11.3394 12.1318 11.3613 12.0018 11.362 11.8631C11.362 11.7245 11.3401 11.5945 11.2963 11.4732C11.2526 11.3519 11.1789 11.2392 11.0754 11.1352L7.32456 7.39163C7.11617 7.18365 6.87306 7.07966 6.59522 7.07966C6.31738 7.07966 6.07426 7.18365 5.86588 7.39163C5.6575 7.59961 5.55331 7.84675 5.55331 8.13307C5.55331 8.41939 5.6575 8.66619 5.86588 8.87347L7.81946 10.8233H1.38566C1.09046 10.8233 0.842829 10.9231 0.642782 11.1227C0.442735 11.3224 0.343059 11.5692 0.343754 11.8631C0.343754 12.1578 0.443777 12.4049 0.643824 12.6046C0.843871 12.8042 1.09115 12.9037 1.38566 12.903H7.81946L5.86588 14.8528C5.6575 15.0608 5.55331 15.3034 5.55331 15.5808C5.55331 15.8581 5.6575 16.1007 5.86588 16.3087Z" fill="#4F4F4F"/>
</svg>