<?xml version="1.0" encoding="UTF-8"?>
<svg xmlns="http://www.w3.org/2000/svg" width="19" height="17" viewBox="0 0 19 17" fill="none">
  <path d="M13.5646 0.970947C11.953 0.970947 10.5227 1.56927 9.55371 2.59766C8.58469 1.56927 7.15442 0.970947 5.54286 0.970947C4.13924 0.972545 2.79359 1.49771 1.80108 2.43124C0.808572 3.36478 0.250233 4.63046 0.248535 5.95068C0.248535 11.4088 8.7363 15.7698 9.09728 15.9532C9.23755 16.0242 9.39439 16.0614 9.55371 16.0614C9.71304 16.0614 9.86987 16.0242 10.0101 15.9532C10.3711 15.7698 18.8589 11.4088 18.8589 5.95068C18.8572 4.63046 18.2988 3.36478 17.3063 2.43124C16.3138 1.49771 14.9682 0.972545 13.5646 0.970947ZM13.1242 11.7121C12.007 12.6038 10.8127 13.4063 9.55371 14.1114C8.29475 13.4063 7.10046 12.6038 5.98325 11.7121C4.24495 10.3095 2.17374 8.17044 2.17374 5.95068C2.17374 5.11023 2.5287 4.3042 3.16053 3.70992C3.79237 3.11563 4.64931 2.78176 5.54286 2.78176C6.97072 2.78176 8.16596 3.49099 8.6625 4.63332C8.73477 4.79984 8.85814 4.94235 9.01686 5.04266C9.17559 5.14297 9.36248 5.19654 9.55371 5.19654C9.74494 5.19654 9.93183 5.14297 10.0906 5.04266C10.2493 4.94235 10.3727 4.79984 10.4449 4.63332C10.9415 3.49099 12.1367 2.78176 13.5646 2.78176C14.4581 2.78176 15.3151 3.11563 15.9469 3.70992C16.5787 4.3042 16.9337 5.11023 16.9337 5.95068C16.9337 8.17044 14.8625 10.3095 13.1242 11.7121Z" fill="#4F4F4F"/>
</svg>