<?xml version="1.0" encoding="UTF-8"?>
<svg xmlns="http://www.w3.org/2000/svg" width="18" height="17" viewBox="0 0 18 17" fill="none">
  <path d="M8.77616 0.138428C9.88149 0.138428 10.9415 0.576665 11.7231 1.35673C12.5047 2.1368 12.9438 3.1948 12.9438 4.29798C12.9438 5.40116 12.5047 6.45916 11.7231 7.23923C10.9415 8.0193 9.88149 8.45753 8.77616 8.45753C7.67084 8.45753 6.61079 8.0193 5.82921 7.23923C5.04763 6.45916 4.60854 5.40116 4.60854 4.29798C4.60854 3.1948 5.04763 2.1368 5.82921 1.35673C6.61079 0.576665 7.67084 0.138428 8.77616 0.138428ZM8.77616 2.2182C8.2235 2.2182 7.69348 2.43732 7.30269 2.82736C6.9119 3.21739 6.69235 3.74639 6.69235 4.29798C6.69235 4.84957 6.9119 5.37857 7.30269 5.76861C7.69348 6.15864 8.2235 6.37776 8.77616 6.37776C9.32882 6.37776 9.85885 6.15864 10.2496 5.76861C10.6404 5.37857 10.86 4.84957 10.86 4.29798C10.86 3.74639 10.6404 3.21739 10.2496 2.82736C9.85885 2.43732 9.32882 2.2182 8.77616 2.2182ZM8.77616 9.49742C11.5581 9.49742 17.1114 10.8805 17.1114 13.657V16.7766H0.440918V13.657C0.440918 10.8805 5.99428 9.49742 8.77616 9.49742ZM8.77616 11.4732C5.6817 11.4732 2.42054 12.9914 2.42054 13.657V14.8009H15.1318V13.657C15.1318 12.9914 11.8706 11.4732 8.77616 11.4732Z" fill="#4F4F4F"/>
</svg>