<?xml version="1.0" encoding="UTF-8"?>
<svg xmlns="http://www.w3.org/2000/svg" width="15" height="15" viewBox="0 0 15 15" fill="none">
  <path d="M1.25 15.1906C1.25 15.1906 0 15.1906 0 13.9763C0 12.762 1.25 9.11914 7.5 9.11914C13.75 9.11914 15 12.762 15 13.9763C15 15.1906 13.75 15.1906 13.75 15.1906H1.25ZM7.5 7.90485C8.49456 7.90485 9.44839 7.52105 10.1517 6.83789C10.8549 6.15472 11.25 5.22814 11.25 4.262C11.25 3.29585 10.8549 2.36928 10.1517 1.68611C9.44839 1.00294 8.49456 0.619141 7.5 0.619141C6.50544 0.619141 5.55161 1.00294 4.84835 1.68611C4.14509 2.36928 3.75 3.29585 3.75 4.262C3.75 5.22814 4.14509 6.15472 4.84835 6.83789C5.55161 7.52105 6.50544 7.90485 7.5 7.90485Z" fill="#828282"></path>
</svg>
