<?xml version="1.0" encoding="UTF-8"?>
<svg xmlns="http://www.w3.org/2000/svg" width="16" height="17" viewBox="0 0 16 17" fill="none">
  <path d="M13.4648 1.00109L13.7828 1.04722C14.277 1.12546 14.8305 1.25642 15.1707 1.59659C15.5117 1.93757 15.6427 2.49106 15.721 2.98525L15.7671 3.30235C15.8709 4.05187 15.8981 5.03448 15.721 6.12498C15.3717 8.27716 14.2259 10.8445 11.3487 12.8336C11.3355 12.9806 11.3308 13.1283 11.3347 13.2759L11.3487 13.7231C11.357 14.0213 11.352 14.3186 11.2697 14.6044C11.1132 15.148 10.5555 15.5063 10.0341 15.7633L9.77875 15.8843L9.44927 16.0293L9.2244 16.1199C8.64204 16.3423 7.93942 16.498 7.47979 16.0375C7.27139 15.8292 7.17502 15.5458 7.09759 15.2625L7.0597 15.1208C6.92791 14.6209 6.77882 14.1242 6.59266 13.6432C6.54123 13.7057 6.4868 13.7656 6.42956 13.8228C5.98064 14.2708 5.37193 14.4965 4.76321 14.6711L4.35877 14.7823L3.95515 14.8894L3.56142 14.9882L3.20558 15.0706L2.77972 15.1612L2.51367 15.2131C2.38094 15.2378 2.24418 15.2299 2.11522 15.19C1.98625 15.15 1.86896 15.0792 1.77349 14.9838C1.67802 14.8883 1.60724 14.771 1.56729 14.6421C1.52733 14.5131 1.51939 14.3764 1.54417 14.2436L1.6356 13.7898L1.74186 13.3137L1.844 12.8937L2.02933 12.1977C2.21302 11.5223 2.43624 10.8263 2.93541 10.328L3.01695 10.2498L2.38846 10.0241L1.75668 9.80667C1.38684 9.68477 0.99805 9.55628 0.729522 9.28777C0.238593 8.79688 0.44699 8.03089 0.691631 7.42881L0.828366 7.11006L0.941214 6.86214C1.20233 6.30701 1.573 5.66786 2.16277 5.49819C2.4486 5.41582 2.74513 5.41088 3.04413 5.41829L3.49141 5.43312C3.63967 5.43559 3.78794 5.43312 3.93374 5.41912C5.92216 2.54213 8.49048 1.39644 10.6428 1.04722C11.5761 0.893362 12.527 0.87782 13.4648 1.00109ZM10.9064 2.67309C9.0959 2.96713 6.89578 3.93656 5.17918 6.51868C4.97078 6.83167 4.61906 6.98075 4.26075 7.03758C4.05812 7.07052 3.85384 7.07876 3.64873 7.07876L3.03343 7.0697C2.93129 7.0697 2.82832 7.0697 2.72618 7.07464C2.47578 7.40739 2.30115 7.80274 2.17018 8.19562L3.40574 8.64451L3.91397 8.83642C4.84311 9.20047 5.74259 9.64112 6.43451 10.333C7.60005 11.4984 8.19229 13.023 8.62062 14.5805C8.99623 14.4487 9.37349 14.2807 9.69309 14.041L9.69803 13.7338L9.68897 13.1194C9.68897 12.9151 9.6972 12.7108 9.73015 12.5066C9.78617 12.1483 9.93608 11.7966 10.2491 11.5882C12.8314 9.87174 13.8009 7.67178 14.095 5.86141C14.2432 4.94717 14.2185 4.13011 14.1353 3.52803C14.1034 3.27824 14.0502 3.03162 13.9764 2.79087C13.7356 2.71729 13.4889 2.66439 13.2391 2.63273C12.4637 2.53222 11.6778 2.54527 10.9064 2.67309ZM4.0993 11.4927C3.811 11.8411 3.67674 12.2982 3.56884 12.7512L3.47987 13.1367L3.43457 13.3228L4.00622 13.1886C4.45926 13.0815 4.91724 12.9456 5.26484 12.6573C5.4193 12.5028 5.50602 12.2932 5.50595 12.0747C5.50587 11.8562 5.41899 11.6467 5.26443 11.4923C5.10987 11.3378 4.90029 11.2511 4.68178 11.2512C4.46328 11.2513 4.25375 11.3381 4.0993 11.4927ZM8.759 5.66951C8.91196 5.51651 9.09355 5.39514 9.29341 5.31231C9.49328 5.22949 9.7075 5.18685 9.92384 5.18681C10.1402 5.18677 10.3544 5.22934 10.5543 5.31209C10.7542 5.39484 10.9358 5.51615 11.0889 5.66909C11.2419 5.82204 11.3632 6.00361 11.4461 6.20346C11.5289 6.40331 11.5716 6.61752 11.5716 6.83385C11.5716 7.05018 11.5291 7.2644 11.4463 7.46428C11.3635 7.66415 11.2422 7.84578 11.0893 7.99877C10.9363 8.15177 10.7546 8.27313 10.5547 8.35593C10.3548 8.43873 10.1405 8.48135 9.92414 8.48135C9.48713 8.48135 9.06802 8.30776 8.759 7.99877C8.606 7.84578 8.48462 7.66414 8.40182 7.46424C8.31901 7.26435 8.27639 7.0501 8.27639 6.83373C8.27639 6.39675 8.44999 5.97767 8.759 5.66868V5.66951Z" fill="url(#paint0_linear_1020_818)"></path>
  <defs>
    <linearGradient id="paint0_linear_1020_818" x1="12.8614" y1="-7.77756" x2="-11.1947" y2="-0.437215" gradientUnits="userSpaceOnUse">
      <stop stop-color="#9F3C9B"></stop>
      <stop offset="1" stop-color="#001857"></stop>
    </linearGradient>
  </defs>
</svg>
